/* XPM */
static char * qyno32_xpm[] = {
"32 32 70 1",
" 	c None",
".	c #0962EA",
"+	c #0960E9",
"@	c #085FE9",
"#	c #095EE8",
"$	c #0961EA",
"%	c #095FE9",
"&	c #0C6EEE",
"*	c #0E7AF3",
"=	c #0F81F6",
"-	c #0F7FF5",
";	c #0D74F1",
">	c #0A64EB",
",	c #0B6BED",
"'	c #0E7FF5",
")	c #0E7DF4",
"!	c #0E7CF4",
"~	c #0F80F5",
"{	c #0C75F1",
"]	c #085EE9",
"^	c #0D75F2",
"/	c #0E7EF5",
"(	c #0D76F2",
"_	c #0B6DEE",
":	c #085EE8",
"<	c #0960EA",
"[	c #0C6EEF",
"}	c #0C71F0",
"|	c #0F7EF5",
"1	c #0B6AED",
"2	c #0A65EB",
"3	c #0C72F0",
"4	c #0D77F2",
"5	c #0E7BF3",
"6	c #409BFD",
"7	c #429DFF",
"8	c #045CE8",
"9	c #429DFD",
"0	c #3E9BFF",
"a	c #64AEFF",
"b	c #0D75F1",
"c	c #035CE8",
"d	c #439DFD",
"e	c #65AFFF",
"f	c #66B0FF",
"g	c #005BE9",
"h	c #61ACF8",
"i	c #0963ED",
"j	c #0858D0",
"k	c #004ECA",
"l	c #66B0FB",
"m	c #0857D0",
"n	c #0857CF",
"o	c #004DCA",
"p	c #0964EB",
"q	c #0F80F6",
"r	c #67B1FB",
"s	c #0B69ED",
"t	c #66B0FA",
"u	c #0A67EC",
"v	c #66B1FB",
"w	c #0962EB",
"x	c #0C70EF",
"y	c #0E7DF5",
"z	c #004ECB",
"A	c #095EE9",
"B	c #095DE8",
"C	c #64ADF9",
"D	c #004CCA",
"E	c #56A1F0",
"                                ",
"                                ",
"                                ",
"           ...    ...           ",
"         ...+@    #$...         ",
"       ...%&*=    -;>+..        ",
"      ..@,')!!    !!~{%...      ",
"     ..]^/!!        !!/...      ",
"     .@()!           !!'...     ",
"    .._/!              !!:..    ",
"    .<~!               !)[..    ",
"   .$}!!                !':..   ",
"   .:|!                 !)1..   ",
"   .2'!                  !3$.   ",
"                         !4+.   ",
"                         !5%.   ",
"                67777    !*+.   ",
"                89770a   !b<.   ",
"   ..~!         .cd0eff         ",
"   .%*!         ..ghffff        ",
"   .._)!        .ijklfff        ",
"    .:)!!       imnnolfff       ",
"    ..pq!        nnnnkrff       ",
"     .$s~!!       nnnnotff      ",
"      .$u~!!!       nnnovf      ",
"      ...$(~!!!!!     nnotf     ",
"        ..+wx4y=-       nzv     ",
"         ...$+ABA         zC    ",
"           ......          DE   ",
"                                ",
"                                ",
"                                "};
