/* XPM */
static char * qyno64_xpm[] = {
"64 64 103 2",
"  	c None",
". 	c #0962EA",
"+ 	c #0960E9",
"@ 	c #085FE9",
"# 	c #0A67EC",
"$ 	c #095FE9",
"% 	c #0C6FEF",
"& 	c #0D79F3",
"* 	c #0F80F6",
"= 	c #0E7EF4",
"- 	c #0F80F5",
"; 	c #0D76F2",
"> 	c #0C6DEE",
", 	c #0961E9",
"' 	c #0961EA",
") 	c #0D77F2",
"! 	c #0E7CF4",
"~ 	c #0E7DF4",
"{ 	c #0D74F0",
"] 	c #0963EB",
"^ 	c #0960EA",
"/ 	c #0A62EA",
"( 	c #0D78F2",
"_ 	c #0E7FF5",
": 	c #0C74F1",
"< 	c #0B6EEE",
"[ 	c #0A68ED",
"} 	c #0860E9",
"| 	c #0C72F0",
"1 	c #095EE9",
"2 	c #0E7BF4",
"3 	c #0E7CF3",
"4 	c #0C73F0",
"5 	c #0C70F0",
"6 	c #0A69ED",
"7 	c #0965EB",
"8 	c #0F7FF5",
"9 	c #085EE9",
"0 	c #0D75F2",
"a 	c #0B6CEE",
"b 	c #0A65EB",
"c 	c #0C76F2",
"d 	c #0B69ED",
"e 	c #0D75F1",
"f 	c #085FE8",
"g 	c #0E7AF3",
"h 	c #0A68EC",
"i 	c #0E7EF5",
"j 	c #0C6EEE",
"k 	c #0B70F0",
"l 	c #0D76F1",
"m 	c #1C76F1",
"n 	c #48A4FF",
"o 	c #429DFF",
"p 	c #075FE9",
"q 	c #146EEE",
"r 	c #4AA5FF",
"s 	c #419DFF",
"t 	c #4CA2FF",
"u 	c #146DEE",
"v 	c #469FFF",
"w 	c #6AB2FF",
"x 	c #66B0FF",
"y 	c #0C70EF",
"z 	c #0861E9",
"A 	c #46A0FF",
"B 	c #6BB2FF",
"C 	c #0B6BED",
"D 	c #0760E9",
"E 	c #156EEF",
"F 	c #419CFF",
"G 	c #136DEE",
"H 	c #51AAFF",
"I 	c #065FE6",
"J 	c #1E6AD7",
"K 	c #72BCFF",
"L 	c #0F7FF6",
"M 	c #0961E7",
"N 	c #0856CC",
"O 	c #0554CE",
"P 	c #1C6AD8",
"Q 	c #0857CF",
"R 	c #0554CD",
"S 	c #1B69D8",
"T 	c #73BCFF",
"U 	c #0960E7",
"V 	c #1A68D8",
"W 	c #0B6EEF",
"X 	c #0856CB",
"Y 	c #0555CE",
"Z 	c #0E7BF3",
"` 	c #0856CD",
" .	c #1967D7",
"..	c #1B68D8",
"+.	c #1A67D7",
"@.	c #0B6DEE",
"#.	c #0D78F3",
"$.	c #0E80F6",
"%.	c #095EE8",
"&.	c #65AFFF",
"*.	c #72BBFF",
"=.	c #76BFFF",
"-.	c #216FDB",
"                                                                                                                                ",
"                                                                                                                                ",
"                                                                                                                                ",
"                                                                                                                                ",
"                                                                                                                                ",
"                                                    .                   .                                                       ",
"                                              . . . . .                 . . . . .                                               ",
"                                        . . . . . . . .                 . . . . . . .                                           ",
"                                    . . . . . . . . . .                 . . . . . . . . .                                       ",
"                                  . . . . . . . . + @ #                 $ + . . . . . . . . .                                   ",
"                              . . . . . . . + . % & * =                 - ; > , ' . . . . . . .                                 ",
"                            . . . . . . $ # ) - ! ! ! !                 ! ! ~ * { ] ^ . . . . . .                               ",
"                          . . . . . ' / ( _ ! ! ! ! ! !                 ! ! ! ! ! - : + . . . . . . .                           ",
"                        . . . . . @ < - ! ! ! ! ! ! ! !                 ! ! ! ! ! ! ! _ [ + . . . . . .                         ",
"                      . . . . . } ) = ! ! ! ! ! ! !                         ! ! ! ! ! ! _ | 1 . . . . .                         ",
"                    . . . . . $ 2 ! ! ! ! ! !                                   ! ! ! ! ! ~ ) @ . . . . .                       ",
"                    . . . . $ 3 ! ! ! ! ! !                                         ! ! ! ! ~ ) @ . . . . .                     ",
"                  . . . . @ & ! ! ! ! !                                               ! ! ! ! ~ 4 + . . . . .                   ",
"                . . . . ' 5 ~ ! ! ! !                                                     ! ! ! _ 6 . . . . .                   ",
"                . . . . 7 - ! ! ! !                                                         ! ! ! 8 + . . . . .                 ",
"              . . . . 9 ! ! ! ! !                                                           ! ! ! ! 0 + . . . .                 ",
"              . . . . a ~ ! ! ! !                                                             ! ! ! _ b . . . . .               ",
"              . . . 9 ~ ! ! ! !                                                                 ! ! ! c + . . . .               ",
"            . . . . d = ! ! !                                                                   ! ! ! - . . . . .               ",
"            . . . ' e ! ! ! !                                                                     ! ! ! % . . . . .             ",
"            . . . f 8 ! ! ! !                                                                     ! ! ! g $ . . . .             ",
"          . . . . h i ! ! !                                                                       ! ! ! * } . . . .             ",
"            . . . j ~ ! ! !                                                                         ! ! = # . . . .             ",
"                                                                                                    ! ! ! % ' . . . .           ",
"                                                                                                    ! ! ! k ' . . . .           ",
"                                                                                                    ! ! ! : ' . . . .           ",
"                                                                                                    ! ! ! l ^ . . . .           ",
"                                                              m n o o o o                           ! ! ! e ' . . . .           ",
"                                                              p q r o o o o o o o o s t             ! ! ! | ' . . . .           ",
"                                                              . } u r o o o o o o s v w x           ! ! ! y ' . . . .           ",
"                                                              . . z u r o o o o s A B x x           ! ! ~ d . . . . .           ",
"          . . . . C ~ ! ! !                                     . . D E r o o s A w x x x x                                     ",
"            . . . , - ! ! !                                     . . . D q r F v w x x x x x                                     ",
"            . . . $ & ! ! ! !                                   . . . . D G H w x x x x x x x                                   ",
"            . . . . > ~ ! ! !                                   . . . . . I J K x x x x x x x                                   ",
"            . . . . z L ! ! ! !                                 . . . . M N O P K x x x x x x x                                 ",
"              . . . ' 4 ! ! ! !                                 . . . M N Q Q R S T x x x x x x                                 ",
"              . . . . + 8 ! ! ! !                               . . U N Q Q Q Q R V T x x x x x x                               ",
"                . . . ' W ~ ! ! ! !                             ] M X Q Q Q Q Q Q Y V T x x x x x x                             ",
"                . . . . @ Z ! ! ! !                               ` Q Q Q Q Q Q Q Q R P K x x x x x                             ",
"                  . . . . ' _ ! ! ! !                               Q Q Q Q Q Q Q Q Q R P T x x x x x                           ",
"                  . . . . . b 8 ! ! ! ! !                               Q Q Q Q Q Q Q Q R V T x x x x                           ",
"                    . . . . ' # 8 ! ! ! ! !                                 Q Q Q Q Q Q Q Y  .T x x x x                         ",
"                      . . . . ' b _ ! ! ! ! ! !                               Q Q Q Q Q Q Q O S K x x x                         ",
"                        . . . . . ' ! ~ ! ! ! ! ! ! !                             Q Q Q Q Q Q R P K x x x                       ",
"                        . . . . . . @ y - ! ! ! ! ! ! ! ! ! ! ! ! ! !                 Q Q Q Q Q R ..T x x                       ",
"                          . . . . . . ' ' : - ! ! ! ! ! ! ! ! ! ! ! !                     Q Q Q Q O +.T x x                     ",
"                              . . . . . . ' ' 5 ! _ ~ ! ! ! ! ! ! ! !                         Q Q Q O S K x x                   ",
"                                . . . . . . . ' $ ] @.| #.2 8 $.8 g (                           Q Q Q R P K x                   ",
"                                  . . . . . . . . . . ' + $ %.%.1 + +                               Q Q R ..T &.                ",
"                                      . . . . . . . . . . . . . . . .                                   Q Y  .*.                ",
"                                          . . . . . . . . . . . . . .                                       O S =.              ",
"                                                . . . . . . . . . . .                                           -.              ",
"                                                        . . . . . .                                                             ",
"                                                                                                                                ",
"                                                                                                                                ",
"                                                                                                                                ",
"                                                                                                                                ",
"                                                                                                                                "};
