/* XPM */
static char * qyno16_xpm[] = {
"16 16 46 1",
" 	c None",
".	c #0961EA",
"+	c #0C6FEF",
"@	c #0C6DEE",
"#	c #095FE9",
"$	c #0962EA",
"%	c #085FE9",
"&	c #0F80F5",
"*	c #0E7DF4",
"=	c #0E7FF5",
"-	c #0A66EC",
";	c #0B70F0",
">	c #0E7EF5",
",	c #0F80F6",
"'	c #0965EB",
")	c #0962EB",
"!	c #085EE8",
"~	c #0C71F0",
"{	c #0A67EC",
"]	c #0B6CEE",
"^	c #3590F9",
"/	c #439EFF",
"(	c #4AA1FF",
"_	c #0B6BEE",
":	c #0C70EF",
"<	c #015AE7",
"[	c #3D96FB",
"}	c #6CB4FF",
"|	c #66B0FF",
"1	c #0961E9",
"2	c #0961E7",
"3	c #0049C6",
"4	c #56A0F4",
"5	c #68B2FF",
"6	c #0B6AED",
"7	c #0958CF",
"8	c #004AC8",
"9	c #56A1F4",
"0	c #69B2FF",
"a	c #0A69ED",
"b	c #0F7FF5",
"c	c #004AC9",
"d	c #085EE9",
"e	c #0C6EEF",
"f	c #0043C5",
"g	c #4C97EF",
"                ",
"      .  .      ",
"    ..+  @#$    ",
"   %+&*  *=-$   ",
"  .;>      ,'$  ",
"  )&        *!  ",
" .~*        ={$ ",
"             ]. ",
"        ^/( >_. ",
" .:*    <[}|    ",
"  1&    2345    ",
"  $6&    7890   ",
"   .ab>    c4   ",
"    $d6+e   fg  ",
"      ..        ",
"                "};
